<svg width="14.138611" height="14.000000" viewBox="0 0 14.1386 14" fill="none" xmlns="http://www.w3.org/2000/svg" xmlns:xlink="http://www.w3.org/1999/xlink">
	<desc>
			Created with Pixso.
	</desc>
	<defs/>
	<path id="Rectangle" d="M14.13 0L0 0L0 14L14.13 14L14.13 0Z" fill="#D8D8D8" fill-opacity="0" fill-rule="evenodd"/>
	<path id="Rectangle" d="" fill="#979797" fill-opacity="0" fill-rule="evenodd"/>
	<path id="Shape" d="M4.64 12C4.77 12 4.91 11.95 5.02 11.87L10.88 7.43C11.02 7.32 11.1 7.16 11.1 6.98C11.1 6.81 11.02 6.65 10.88 6.54L5.04 2.12C4.78 1.92 4.4 1.96 4.19 2.21C3.99 2.45 4.03 2.81 4.29 3.01L9.54 6.98L4.26 10.98C4 11.18 3.96 11.54 4.17 11.78C4.29 11.92 4.46 12 4.64 12Z" fill="#000000" fill-opacity="0.750000" fill-rule="nonzero"/>
</svg>
